<svg width="60" height="60" viewBox="0 0 60 60" fill="none" xmlns="http://www.w3.org/2000/svg">
<path d="M46.8941 0H13.1059C5.86771 0 0 5.86771 0 13.1059V46.8941C0 54.1323 5.86771 60 13.1059 60H46.8941C54.1323 60 60 54.1323 60 46.8941V13.1059C60 5.86771 54.1323 0 46.8941 0Z" fill="#5865F2"/>
<path d="M40.9393 20.166C44.4748 25.4009 46.2207 31.3057 45.5681 38.1035C45.5653 38.1323 45.5504 38.1587 45.527 38.176C42.8496 40.1558 40.2557 41.3574 37.6982 42.1541C37.6782 42.1602 37.6569 42.1599 37.6372 42.1532C37.6175 42.1465 37.6003 42.1338 37.5882 42.1167C36.9973 41.2888 36.4604 40.4159 35.9901 39.4993C35.9631 39.4453 35.9878 39.3803 36.0433 39.359C36.8959 39.0355 37.7067 38.6477 38.4866 38.1886C38.548 38.1523 38.5519 38.0637 38.4952 38.0211C38.3297 37.8974 38.1657 37.7673 38.0088 37.6373C37.9795 37.6133 37.94 37.6085 37.9067 37.6247C32.8436 39.9793 27.2972 39.9793 22.1743 37.6247C22.1411 37.6097 22.1015 37.6148 22.073 37.6385C21.9165 37.7685 21.7521 37.8974 21.5882 38.0211C21.5314 38.0637 21.5361 38.1523 21.5979 38.1886C22.3778 38.639 23.1886 39.0355 24.04 39.3606C24.0952 39.3819 24.1214 39.4453 24.094 39.4993C23.6339 40.4171 23.097 41.2899 22.4952 42.1179C22.469 42.1514 22.4259 42.1668 22.3852 42.1541C19.8398 41.3574 17.2459 40.1558 14.5685 38.176C14.5463 38.1587 14.5302 38.1311 14.5278 38.1023C13.9824 32.2223 15.0941 26.2686 19.1523 20.1648C19.1621 20.1487 19.177 20.136 19.1941 20.1286C21.191 19.2056 23.3302 18.5266 25.5662 18.1389C25.6068 18.1326 25.6475 18.1515 25.6686 18.1878C25.9449 18.6804 26.2607 19.3121 26.4744 19.8283C28.8312 19.4657 31.2248 19.4657 33.6309 19.8283C33.8446 19.3231 34.1494 18.6804 34.4245 18.1878C34.4343 18.1698 34.4495 18.1553 34.4679 18.1466C34.4863 18.1378 34.507 18.1351 34.527 18.1389C36.7641 18.5278 38.9034 19.2068 40.8986 20.1286C40.9162 20.136 40.9307 20.1487 40.9393 20.166ZM27.6725 31.3459C27.6972 29.6076 26.4387 28.1692 24.8591 28.1692C23.2923 28.1692 22.046 29.595 22.046 31.3459C22.046 33.0964 23.3169 34.5221 24.8591 34.5221C26.4262 34.5221 27.6725 33.0964 27.6725 31.3459ZM38.0742 31.3459C38.0988 29.6076 36.8404 28.1692 35.2611 28.1692C33.6939 28.1692 32.4476 29.595 32.4476 31.3459C32.4476 33.0964 33.7185 34.5221 35.2611 34.5221C36.8404 34.5221 38.0742 33.0964 38.0742 31.3459Z" fill="white"/>
</svg>
