<svg width="500" height="500" viewBox="0 0 500 500" fill="none" xmlns="http://www.w3.org/2000/svg">
<g clip-path="url(#clip0_31_10)">
<rect width="500" height="500" fill="white"/>
<g clip-path="url(#clip1_31_10)">
<path d="M199.124 98.9439L204.017 83.899C204.382 82.7304 203.798 81.5619 202.629 81.1967C201.461 80.8315 200.292 81.4158 199.927 82.5844L194.595 99.0169C194.742 99.0169 194.961 99.0169 195.107 99.0169H199.124V98.9439Z" fill="#0086FF"/>
<path d="M245.719 83.6798C246.084 82.5113 245.5 81.3428 244.331 80.9776C243.163 80.6124 241.994 81.1967 241.629 82.3652L235.494 101.354L239.584 102.815L245.719 83.6798Z" fill="#0086FF"/>
<path d="M236.152 106.174C236.225 106.174 236.298 106.174 236.371 106.247L235.786 106.028C235.86 106.101 236.006 106.174 236.152 106.174Z" fill="#0086FF"/>
<path d="M235.787 106.028C234.91 105.517 234.399 104.494 234.764 103.472L235.494 101.354L229.14 99.0899C228.921 99.0169 228.629 98.9438 228.41 98.9438H221.18L225.489 103.253H228.045L235.787 106.028Z" fill="#93EAFF"/>
<path d="M195.472 103.18C196.64 103.545 197.809 102.961 198.174 101.792L199.124 98.9438H195.107C194.961 98.9438 194.742 98.9438 194.595 98.9438L194.084 100.405C193.719 101.573 194.376 102.815 195.472 103.18Z" fill="#93EAFF"/>
<path d="M235.786 106.028L236.371 106.247C237.466 106.466 238.562 105.882 238.854 104.787L239.511 102.742L235.421 101.281L234.691 103.399C234.399 104.494 234.837 105.59 235.786 106.028Z" fill="#93EAFF"/>
<path d="M121.343 329.146C121.343 329.146 121.343 329.073 121.343 329H121.27V259.618H69.4157V381.584H190.944V329.146H121.343Z" fill="#0086FF"/>
<path d="M382.73 329H382.657V329.146H313.056V381.584H434.584V259.691H382.73V329Z" fill="#0086FF"/>
<path d="M121.27 138.382V69H121.343V68.854H190.944V16.4158H69.4157V138.382H121.27Z" fill="#0086FF"/>
<path d="M313.056 16.4158V68.854H382.657V69H382.73V138.382H434.584V16.4158H313.056Z" fill="#0086FF"/>
<path d="M240.169 302.051L242.36 304.169L242.798 303.876L240.169 302.051Z" fill="white"/>
<path d="M164.652 241.068C163.264 245.45 165.601 250.124 169.983 251.511C171.152 251.876 172.32 251.292 172.685 250.124C173.051 248.955 172.466 247.787 171.298 247.421C169.18 246.764 168.084 244.5 168.742 242.382L171.444 233.983L168.011 230.551L164.652 241.068Z" fill="#0086FF"/>
<path d="M174.438 217.989C173.27 217.624 172.101 218.208 171.736 219.376L168.084 230.551L171.517 233.983L175.826 220.691C176.191 219.596 175.534 218.354 174.438 217.989Z" fill="#0086FF"/>
<path d="M158.006 221.787L154.792 231.719C153.405 236.101 155.742 240.775 160.124 242.163C161.292 242.528 162.461 241.944 162.826 240.775C163.191 239.607 162.607 238.438 161.438 238.073C159.32 237.416 158.225 235.152 158.882 233.034L161.73 224.197L158.444 220.91C158.225 221.202 158.079 221.494 158.006 221.787Z" fill="#0086FF"/>
<path d="M160.708 220.399C159.904 220.107 159.028 220.399 158.444 220.983L161.73 224.27L162.095 223.174C162.461 222.006 161.803 220.764 160.708 220.399Z" fill="#0086FF"/>
<path d="M175.972 169.713C176.118 169.494 176.264 169.275 176.337 169.056L181.742 152.478H177.213L172.393 167.376L163.118 179.427L166.185 182.494L175.972 169.713Z" fill="#0086FF"/>
<path d="M146.539 217.259L148.949 219.011C149.899 219.742 150.118 221.056 149.461 222.006C148.73 222.955 147.416 223.174 146.466 222.517L145.225 221.641C144.129 225.877 146.539 230.259 150.702 231.573C151.871 231.938 153.039 231.354 153.404 230.185C153.77 229.017 153.185 227.848 152.017 227.483C149.899 226.826 148.803 224.562 149.461 222.444L152.017 214.483L148.584 211.051L146.539 217.259Z" fill="#0086FF"/>
<path d="M164.944 184.174L166.185 182.567L163.118 179.5L162.68 180.084L164.433 181.326C165.236 181.983 165.455 183.225 164.944 184.174Z" fill="#0086FF"/>
<path d="M164.579 184.612C163.848 185.343 162.68 185.416 161.803 184.831L159.978 183.517L155.888 188.848C155.742 189.067 155.595 189.287 155.522 189.506L148.511 211.051L151.944 214.483L159.539 191.185L164.579 184.612Z" fill="#0086FF"/>
<path d="M224.174 149.264C224.174 149.337 224.247 149.41 224.247 149.41C224.247 149.337 224.174 149.337 224.174 149.264Z" fill="#0086FF"/>
<path d="M222.275 152.478H219.281L207.157 189.798C206.938 190.455 207.084 191.112 207.449 191.697L215.118 202.725L215.41 217.77L219.792 220.983L219.354 201.994C219.354 201.556 219.208 201.191 218.989 200.826L211.539 190.09L218.112 169.86L217.09 170.225C216.871 170.298 216.579 170.371 216.36 170.371C215.483 170.371 214.607 169.787 214.315 168.91C213.949 167.815 214.534 166.573 215.629 166.135L219.719 164.674L224.174 150.944C224.174 150.871 224.174 150.871 224.174 150.798C224.174 151.82 223.298 152.478 222.275 152.478Z" fill="#0086FF"/>
<path d="M223.006 148.315H222.933C223.006 148.315 223.079 148.315 223.079 148.388C223.006 148.315 223.006 148.315 223.006 148.315Z" fill="#0086FF"/>
<path d="M223.298 148.388C223.371 148.388 223.444 148.461 223.444 148.461C223.371 148.461 223.298 148.461 223.298 148.388Z" fill="#0086FF"/>
<path d="M223.59 148.607C223.663 148.68 223.663 148.68 223.736 148.753C223.736 148.68 223.663 148.68 223.59 148.607Z" fill="#0086FF"/>
<path d="M223.882 148.899C223.955 148.972 223.955 148.972 224.028 149.045C224.028 149.045 223.955 148.972 223.882 148.899Z" fill="#0086FF"/>
<path d="M201.315 209.298C201.242 209.371 201.169 209.371 201.169 209.444C201.169 209.444 201.242 209.371 201.315 209.298Z" fill="#0086FF"/>
<path d="M200.511 210.32C200.511 210.393 200.511 210.393 200.438 210.393L190.944 239.753C190.944 243.624 190.944 247.056 190.944 249.539L192.039 250.343L203.652 214.556L201.242 212.803C200.438 212.292 200.146 211.197 200.511 210.32Z" fill="#0086FF"/>
<path d="M200.803 209.809C200.876 209.736 200.876 209.663 200.949 209.663C200.949 209.663 200.876 209.736 200.803 209.809Z" fill="#0086FF"/>
<path d="M187.657 250.124L186.124 254.798C185.466 256.916 183.202 258.011 181.084 257.354C178.966 256.697 177.871 254.433 178.528 252.315L181.303 243.77L177.871 240.337L174.438 251C173.051 255.382 175.388 260.056 179.77 261.444C184.152 262.832 188.826 260.494 190.213 256.112L190.652 254.652L188.242 252.899C187.365 252.315 187.146 251.073 187.657 250.124Z" fill="#0086FF"/>
<path d="M202.264 209.006C202.337 209.006 202.41 209.006 202.483 209.006C202.41 208.933 202.337 208.933 202.264 209.006Z" fill="#0086FF"/>
<path d="M203.14 209.006C203.213 209.006 203.287 209.079 203.287 209.079C203.287 209.079 203.213 209.079 203.213 209.006C203.14 209.079 203.14 209.079 203.14 209.006Z" fill="#0086FF"/>
<path d="M203.725 209.298C203.652 209.225 203.579 209.225 203.506 209.225C203.579 209.225 203.652 209.298 203.725 209.298Z" fill="#0086FF"/>
<path d="M202.921 209.006C202.848 209.006 202.775 209.006 202.702 209.006C202.775 208.933 202.848 209.006 202.921 209.006Z" fill="#0086FF"/>
<path d="M187.657 250.124C187.73 250.051 187.73 249.978 187.803 249.905C188.534 248.955 189.848 248.736 190.798 249.393L190.944 249.539C190.944 247.056 190.944 243.624 190.944 239.753L187.657 250.124Z" fill="#0086FF"/>
<path d="M189.556 218.281C189.921 217.112 189.337 215.944 188.169 215.579C187 215.214 185.831 215.798 185.466 216.966L177.871 240.337L181.303 243.77L189.556 218.281Z" fill="#0086FF"/>
<path d="M278.876 294.966C280.337 294.382 281.652 293.433 282.601 292.118C283.331 291.169 283.112 289.781 282.09 289.124C281.14 288.393 279.753 288.612 279.096 289.635C278.146 290.95 276.539 291.534 275.006 291.169C276.978 293.141 278.219 294.382 278.219 294.382L278.876 294.966Z" fill="#93EAFF"/>
<path d="M255.067 277.073C254.118 276.343 252.73 276.562 252.073 277.584C251.343 278.534 251.562 279.921 252.584 280.579L270.989 293.944C273.326 295.697 276.32 295.916 278.876 294.966L278.219 294.382C278.219 294.382 276.978 293.141 275.006 291.169C274.494 291.023 273.983 290.803 273.545 290.511L255.067 277.073Z" fill="#93EAFF"/>
<path d="M270.185 295.697C269.236 294.966 267.848 295.186 267.191 296.208C265.876 297.961 263.393 298.399 261.64 297.084L253.169 290.95C252.219 290.219 250.831 290.438 250.174 291.461C249.444 292.41 249.663 293.798 250.685 294.455L259.157 300.59C262.882 303.292 268.067 302.489 270.77 298.764C271.427 297.742 271.208 296.354 270.185 295.697Z" fill="#93EAFF"/>
<path d="M198.612 260.494L197.809 259.618H204.82L192.039 250.343L190.652 254.725L198.612 260.494Z" fill="#93EAFF"/>
<path d="M216.652 279.264L214.826 280.579L218.624 286.129C218.77 286.348 218.916 286.494 219.135 286.641L240.242 301.978L217.09 278.826C216.944 279.045 216.798 279.191 216.652 279.264Z" fill="#93EAFF"/>
<path d="M206.135 267.944L212.343 277.073L214.022 275.831L206.135 267.944Z" fill="#93EAFF"/>
<path d="M217.017 278.899L240.169 302.051L242.725 303.95L245.135 302.197C246.084 301.466 247.472 301.686 248.129 302.708C248.86 303.657 248.64 305.045 247.618 305.702L246.376 306.579C250.028 308.916 254.921 308.039 257.551 304.461C258.281 303.511 258.062 302.124 257.039 301.466C256.09 300.736 254.702 300.955 254.045 301.978C252.73 303.73 250.247 304.169 248.494 302.854L221.91 283.5L217.236 276.708C217.674 277.365 217.528 278.242 217.017 278.899Z" fill="#93EAFF"/>
<path d="M198.612 260.494L203.287 263.927L206.062 268.017L213.949 275.905L214.022 275.831C214.899 275.174 216.14 275.32 216.871 276.124L206.573 261.152C206.427 260.933 206.281 260.787 206.062 260.64L204.747 259.691H197.736L198.612 260.494Z" fill="#93EAFF"/>
<path d="M190.944 253.41L187.657 250.124C187.146 251.073 187.365 252.315 188.242 252.899L190.652 254.652L192.039 250.343L190.944 249.539C190.944 251.95 190.944 253.41 190.944 253.41Z" fill="#93EAFF"/>
<path d="M187.803 249.905C187.73 249.978 187.73 250.051 187.657 250.124L190.944 253.41C190.944 253.41 190.944 251.95 190.944 249.539L190.798 249.393C189.848 248.736 188.461 248.955 187.803 249.905Z" fill="#93EAFF"/>
<path d="M146.539 217.258L133.685 207.983C132.736 207.253 131.348 207.472 130.691 208.494C129.961 209.444 130.18 210.831 131.202 211.489L145.152 221.64C145.225 221.494 145.225 221.275 145.298 221.129L146.539 217.258Z" fill="#93EAFF"/>
<path d="M149.388 222.006C150.118 221.056 149.899 219.669 148.876 219.011L146.466 217.258L145.225 221.056C145.152 221.202 145.152 221.421 145.079 221.567L146.32 222.444C147.343 223.247 148.657 223.028 149.388 222.006Z" fill="#93EAFF"/>
<path d="M146.393 168.253C145.444 167.522 144.056 167.742 143.399 168.764C142.669 169.713 142.888 171.101 143.91 171.758L160.051 183.444L162.68 180.011L146.393 168.253Z" fill="#93EAFF"/>
<path d="M164.798 184.32C164.871 184.247 164.871 184.174 164.871 184.101L164.506 184.539C164.652 184.539 164.725 184.393 164.798 184.32Z" fill="#93EAFF"/>
<path d="M164.579 184.612L164.944 184.174C165.528 183.225 165.236 181.983 164.36 181.326L162.607 180.084L159.978 183.517L161.803 184.832C162.68 185.416 163.848 185.343 164.579 184.612Z" fill="#93EAFF"/>
<path d="M201.899 209.079C201.826 209.079 201.753 209.152 201.68 209.152C201.753 209.079 201.826 209.079 201.899 209.079Z" fill="#93EAFF"/>
<path d="M201.022 209.59C201.095 209.517 201.095 209.517 201.169 209.444C201.095 209.517 201.022 209.517 201.022 209.59Z" fill="#93EAFF"/>
<path d="M201.461 209.225C201.388 209.225 201.315 209.298 201.315 209.298C201.388 209.298 201.461 209.225 201.461 209.225Z" fill="#93EAFF"/>
<path d="M200.73 209.955C200.73 209.882 200.803 209.882 200.803 209.809L200.73 209.882C200.73 209.882 200.73 209.882 200.73 209.955Z" fill="#93EAFF"/>
<path d="M203.506 209.225C203.433 209.225 203.36 209.152 203.286 209.152C203.36 209.152 203.433 209.152 203.506 209.225Z" fill="#93EAFF"/>
<path d="M200.584 210.101C200.584 210.174 200.511 210.247 200.511 210.32C200.584 210.247 200.584 210.174 200.584 210.101Z" fill="#93EAFF"/>
<path d="M203.14 209.006C203.067 209.006 202.994 208.933 202.921 208.933C202.994 209.006 203.067 209.006 203.14 209.006Z" fill="#93EAFF"/>
<path d="M250.831 229.82C250.393 229.674 250.028 229.674 249.59 229.82L237.101 233.545L219.865 221.056V222.152C219.865 222.371 219.865 222.663 219.792 222.882C219.5 223.759 218.697 224.343 217.82 224.343C216.652 224.343 215.629 223.393 215.629 222.225L215.556 217.843L203.871 209.371L203.798 209.298C204.601 209.809 204.966 210.832 204.674 211.781L203.725 214.629L235.494 237.708C236.006 238.073 236.736 238.219 237.393 238L250.247 234.129L264.708 238.511L269.09 235.298L250.831 229.82Z" fill="#93EAFF"/>
<path d="M215.556 222.225C215.556 223.393 216.579 224.343 217.747 224.343C218.697 224.343 219.5 223.685 219.719 222.882C219.792 222.663 219.865 222.444 219.792 222.152V221.056L215.41 217.843L215.556 222.225Z" fill="#93EAFF"/>
<path d="M203.725 209.298C203.652 209.225 203.579 209.225 203.506 209.225C203.433 209.225 203.36 209.152 203.287 209.152C203.214 209.152 203.14 209.079 203.14 209.079C203.067 209.079 202.994 209.006 202.921 209.006C202.848 209.006 202.775 209.006 202.702 209.006C202.629 209.006 202.556 209.006 202.483 209.006C202.41 209.006 202.337 209.006 202.264 209.006C202.191 209.006 202.118 209.006 202.045 209.006C201.972 209.006 201.899 209.006 201.826 209.079C201.753 209.079 201.68 209.152 201.607 209.152C201.534 209.152 201.461 209.225 201.388 209.225C201.315 209.225 201.242 209.298 201.242 209.298C201.169 209.371 201.096 209.371 201.096 209.444C201.023 209.517 201.023 209.517 200.949 209.59C200.876 209.663 200.803 209.736 200.803 209.736C200.73 209.809 200.73 209.809 200.73 209.882C200.657 209.955 200.657 210.028 200.584 210.101C200.584 210.174 200.511 210.247 200.511 210.32C200.146 211.197 200.438 212.219 201.242 212.876L203.652 214.629L204.601 211.781C204.893 210.831 204.528 209.809 203.725 209.298Z" fill="#93EAFF"/>
<path d="M252.73 247.202C252.803 247.129 252.803 247.129 252.876 247.056C252.803 247.056 252.73 247.129 252.73 247.202Z" fill="#93EAFF"/>
<path d="M252.438 247.421C252.438 247.421 252.438 247.421 252.511 247.348C252.511 247.348 252.511 247.421 252.438 247.421Z" fill="#93EAFF"/>
<path d="M252.073 248.298C252.073 248.225 252.073 248.152 252.146 248.079C252.146 248.152 252.146 248.225 252.073 248.298Z" fill="#93EAFF"/>
<path d="M252.219 247.86C252.219 247.787 252.292 247.714 252.292 247.714C252.292 247.787 252.219 247.787 252.219 247.86Z" fill="#93EAFF"/>
<path d="M252.73 250.197C252.657 250.124 252.657 250.051 252.584 250.051C252.584 250.124 252.657 250.197 252.73 250.197Z" fill="#93EAFF"/>
<path d="M286.618 274.736C285.888 273.787 286.107 272.399 287.129 271.742L288.371 270.792L257.916 248.663L255.506 250.416C254.702 251 253.607 250.927 252.876 250.343L252.949 250.416L290.708 277.803C292.461 279.118 292.899 281.601 291.584 283.354C290.27 285.107 287.787 285.545 286.034 284.23L257.039 263.27C256.09 262.539 254.702 262.758 254.045 263.781C253.315 264.73 253.534 266.118 254.556 266.775L283.478 287.809C287.202 290.511 292.388 289.708 295.09 285.983C297.792 282.258 296.989 277.073 293.264 274.371L292.022 273.494L289.612 275.247C288.663 275.905 287.275 275.685 286.618 274.736Z" fill="#93EAFF"/>
<path d="M175.972 134.073C177.14 134.073 178.163 133.124 178.163 131.882C178.163 129.691 179.989 127.865 182.18 127.865H204.966C206.135 127.865 207.157 126.916 207.157 125.674C207.157 124.506 206.208 123.483 204.966 123.483H182.18C177.579 123.483 173.854 127.208 173.854 131.809C173.854 133.124 174.803 134.073 175.972 134.073Z" fill="#93EAFF"/>
<path d="M181.742 121.73C182.91 121.73 183.933 120.781 183.933 119.539C183.933 117.348 185.758 115.523 187.949 115.523H198.393C199.562 115.523 200.584 114.573 200.584 113.332C200.584 112.163 199.635 111.141 198.393 111.141H187.949C183.348 111.141 179.624 114.865 179.624 119.466C179.624 120.781 180.573 121.73 181.742 121.73Z" fill="#93EAFF"/>
<path d="M199.124 98.9438L198.174 101.792C197.809 102.961 196.567 103.545 195.472 103.18C194.303 102.815 193.719 101.573 194.084 100.478L194.595 99.0169C190.286 99.309 186.781 102.888 186.781 107.27C186.781 108.438 187.73 109.461 188.972 109.461C190.14 109.461 191.163 108.511 191.163 107.27C191.163 105.079 192.989 103.253 195.18 103.253H225.489L221.18 98.9438H199.124Z" fill="#93EAFF"/>
<path d="M236.298 106.247L253.388 112.309C253.607 112.382 253.899 112.455 254.118 112.455H271.573L270.185 108.146H254.556L239.511 102.815L238.854 104.787C238.489 105.882 237.393 106.466 236.298 106.247Z" fill="#93EAFF"/>
<path d="M327.882 112.455H343.73C344.899 112.455 345.921 111.506 345.921 110.264C345.921 109.096 344.972 108.073 343.73 108.073H326.494C326.567 108.219 326.64 108.365 326.714 108.584L327.882 112.455Z" fill="#93EAFF"/>
<path d="M356.803 152.039C357.972 152.039 358.994 151.09 358.994 149.848C358.994 148.68 358.045 147.657 356.803 147.657H336.865L336.719 151.966H356.803V152.039Z" fill="#93EAFF"/>
<path d="M287.494 152.039C287.421 152.112 287.348 152.112 287.348 152.185C287.421 152.185 287.494 152.112 287.494 152.039Z" fill="#93EAFF"/>
<path d="M288.371 150.652C288.371 150.725 288.371 150.798 288.371 150.871C288.298 150.798 288.298 150.725 288.371 150.652Z" fill="#93EAFF"/>
<path d="M284.135 151.017L283.185 148.169H243.966C243.309 148.169 242.652 148.461 242.213 149.045L234.034 159.708L219.792 164.674L218.112 169.86L236.079 163.579C236.444 163.433 236.809 163.214 237.101 162.848L244.989 152.478H266.315L265.657 151.601C265.511 151.382 265.365 151.163 265.292 150.944C265 150.067 265.292 149.118 266.022 148.534C266.972 147.803 268.36 148.022 269.017 148.972L271.646 152.405H286.034C286.107 152.405 286.107 152.405 286.18 152.405C285.376 152.551 284.5 151.966 284.135 151.017Z" fill="#93EAFF"/>
<path d="M286.764 152.405C286.691 152.405 286.618 152.478 286.545 152.478C286.618 152.478 286.691 152.478 286.764 152.405Z" fill="#93EAFF"/>
<path d="M288.079 151.455C288.079 151.528 288.006 151.601 288.006 151.601C288.006 151.601 288.006 151.528 288.079 151.455Z" fill="#93EAFF"/>
<path d="M288.225 151.09C288.225 151.163 288.152 151.236 288.152 151.309C288.225 151.236 288.225 151.163 288.225 151.09Z" fill="#93EAFF"/>
<path d="M287.202 152.258C287.129 152.258 287.056 152.331 286.983 152.331C287.056 152.331 287.129 152.331 287.202 152.258Z" fill="#93EAFF"/>
<path d="M287.786 151.82C287.713 151.893 287.713 151.893 287.64 151.966C287.713 151.893 287.786 151.82 287.786 151.82Z" fill="#93EAFF"/>
<path d="M214.461 168.91C214.753 169.787 215.629 170.371 216.506 170.371C216.725 170.371 217.017 170.298 217.236 170.225L218.258 169.86L219.938 164.674L215.848 166.135C214.68 166.573 214.095 167.815 214.461 168.91Z" fill="#93EAFF"/>
<path d="M223.736 148.753C223.809 148.826 223.809 148.826 223.882 148.899C223.882 148.826 223.809 148.826 223.736 148.753Z" fill="#93EAFF"/>
<path d="M180.792 148.315C181.961 148.68 182.545 149.921 182.18 151.017L181.669 152.478H219.281L220.23 149.629C220.522 148.68 221.472 148.096 222.421 148.169C222.348 148.169 222.348 148.169 222.275 148.169H175.607C173.416 148.169 171.59 146.343 171.59 144.152C171.59 141.961 173.416 140.135 175.607 140.135H211.393C212.562 140.135 213.584 139.185 213.584 137.944C213.584 136.775 212.635 135.753 211.393 135.753H175.607C171.006 135.753 167.281 139.478 167.281 144.079C167.281 148.68 171.006 152.404 175.607 152.404H177.14L178.09 149.556C178.455 148.534 179.697 147.949 180.792 148.315Z" fill="#93EAFF"/>
<path d="M223.444 148.534C223.517 148.607 223.59 148.607 223.59 148.68C223.59 148.607 223.517 148.534 223.444 148.534Z" fill="#93EAFF"/>
<path d="M224.247 149.41C224.247 149.483 224.32 149.556 224.32 149.629C224.32 149.556 224.32 149.483 224.247 149.41Z" fill="#93EAFF"/>
<path d="M182.18 151.017C182.545 149.848 181.961 148.68 180.792 148.315C179.624 147.949 178.455 148.534 178.09 149.702L177.14 152.551H181.669L182.18 151.017Z" fill="#93EAFF"/>
<path d="M220.23 149.702L219.281 152.551H222.275C223.298 152.551 224.101 151.893 224.32 150.944C224.32 150.871 224.32 150.798 224.393 150.725C224.393 150.652 224.393 150.579 224.393 150.506C224.393 150.433 224.393 150.36 224.393 150.287C224.393 150.214 224.393 150.14 224.393 150.067C224.393 149.994 224.393 149.921 224.393 149.848C224.393 149.775 224.32 149.702 224.32 149.629C224.32 149.556 224.247 149.483 224.247 149.41C224.247 149.337 224.174 149.264 224.174 149.264C224.174 149.191 224.101 149.118 224.028 149.045C223.955 148.972 223.955 148.972 223.882 148.899C223.809 148.826 223.809 148.826 223.736 148.753C223.663 148.68 223.663 148.68 223.59 148.607C223.517 148.534 223.444 148.534 223.444 148.461C223.371 148.461 223.298 148.388 223.298 148.388C223.225 148.388 223.152 148.315 223.079 148.315C223.006 148.315 222.933 148.242 222.933 148.242C222.86 148.242 222.786 148.169 222.713 148.169C222.64 148.169 222.567 148.169 222.494 148.169C221.472 148.169 220.522 148.753 220.23 149.702Z" fill="#93EAFF"/>
<path d="M290.124 102.669C292.242 102.011 294.506 103.107 295.163 105.225L302.174 126.843C302.539 128.011 303.781 128.596 304.876 128.23C306.045 127.865 306.629 126.624 306.264 125.528L299.253 103.91C297.865 99.5281 293.118 97.191 288.809 98.5786C287.64 98.9438 287.056 100.185 287.421 101.281C287.786 102.449 288.955 103.034 290.124 102.669Z" fill="#0086FF"/>
<path d="M303.562 104.348C305.68 103.691 307.944 104.787 308.601 106.905L311.815 116.837C312.18 118.006 313.421 118.59 314.517 118.225C315.685 117.86 316.27 116.618 315.904 115.522L312.691 105.59C311.303 101.208 306.556 98.8708 302.247 100.258C301.079 100.624 300.494 101.865 300.86 102.961C301.225 104.056 302.466 104.714 303.562 104.348Z" fill="#0086FF"/>
<path d="M336.719 152.039H334.601C333.506 152.039 332.556 151.163 332.483 150.068L332.118 163.579L336.354 167.815L336.719 152.039Z" fill="#0086FF"/>
<path d="M334.601 147.73H336.865L337.011 141.011C337.011 140.792 337.011 140.5 336.938 140.281L327.882 112.455H324.888C323.719 112.455 322.697 111.506 322.697 110.264C322.697 109.096 323.646 108.073 324.888 108.073H326.421C324.815 104.056 320.36 101.865 316.124 103.253C314.955 103.618 314.371 104.86 314.736 105.955C315.101 107.124 316.343 107.708 317.438 107.343C319.556 106.685 321.82 107.781 322.478 109.899L332.629 141.157L332.41 149.41C332.702 148.461 333.579 147.73 334.601 147.73Z" fill="#0086FF"/>
<path d="M332.118 168.983L337.522 185.562L341.174 182.86L336.354 167.961V167.815L332.118 163.579L331.972 168.18C331.972 168.472 332.045 168.691 332.118 168.983Z" fill="#0086FF"/>
<path d="M322.77 110.264C322.77 111.433 323.719 112.455 324.961 112.455H327.955L326.713 108.657C326.64 108.511 326.567 108.292 326.494 108.146H324.961C323.719 108.146 322.77 109.096 322.77 110.264Z" fill="#0086FF"/>
<path d="M334.601 152.039H336.719L336.865 147.73H334.601C333.506 147.73 332.629 148.534 332.483 149.556V150.14C332.556 151.163 333.506 152.039 334.601 152.039Z" fill="#0086FF"/>
<path d="M354.904 239.096L359.798 254.14C360.163 255.309 361.404 255.893 362.5 255.528C363.669 255.163 364.253 253.921 363.888 252.826L358.556 236.393C358.41 236.539 358.264 236.612 358.118 236.758L354.904 239.096Z" fill="#0086FF"/>
<path d="M320.725 255.017C320.652 255.017 320.579 255.09 320.506 255.09L321.09 254.944C320.944 254.944 320.798 254.944 320.725 255.017Z" fill="#0086FF"/>
<path d="M326.202 278.826C326.567 279.994 327.809 280.579 328.904 280.213C330.073 279.848 330.657 278.607 330.292 277.511L324.157 258.522L319.994 259.764L326.202 278.826Z" fill="#0086FF"/>
<path d="M304.511 212.803C304.584 212.877 304.584 212.877 304.657 212.95C304.657 212.877 304.584 212.877 304.511 212.803Z" fill="#0086FF"/>
<path d="M306.921 213.095C306.994 213.095 307.067 213.022 307.14 213.022C307.067 213.022 306.994 213.022 306.921 213.095Z" fill="#0086FF"/>
<path d="M304.365 212.657C304.292 212.584 304.292 212.511 304.219 212.511C304.292 212.511 304.365 212.584 304.365 212.657Z" fill="#0086FF"/>
<path d="M304.876 213.022C304.949 213.022 305.022 213.095 305.022 213.095C305.022 213.095 304.949 213.095 304.876 213.022Z" fill="#0086FF"/>
<path d="M306.702 213.169C306.629 213.169 306.556 213.242 306.556 213.242H306.629C306.629 213.169 306.702 213.169 306.702 213.169Z" fill="#0086FF"/>
<path d="M305.242 213.169C305.315 213.169 305.388 213.169 305.461 213.242C305.388 213.242 305.315 213.242 305.242 213.169Z" fill="#0086FF"/>
<path d="M277.854 167.669C278.146 168.034 278.438 168.253 278.876 168.399L291.146 172.708L297.719 192.938L298.303 192.062C298.449 191.843 298.596 191.697 298.815 191.551C299.545 191.039 300.567 190.966 301.298 191.551C302.247 192.208 302.539 193.596 301.809 194.545L299.326 198.124L303.781 211.854C303.781 211.927 303.781 211.927 303.854 212C303.489 211.124 303.781 210.028 304.584 209.444L306.994 207.691L294.871 170.371C294.652 169.714 294.14 169.202 293.556 168.983L280.848 164.528L271.719 152.551H266.315L277.854 167.669Z" fill="#0086FF"/>
<path d="M304 212.146C304 212.219 304.073 212.292 304.146 212.365C304.073 212.292 304.073 212.219 304 212.146Z" fill="#0086FF"/>
<path d="M266.095 148.68C265.365 149.264 265.073 150.214 265.365 151.09C265.438 151.309 265.584 151.528 265.73 151.747L266.388 152.624H271.792L269.163 149.191C268.433 148.096 267.045 147.949 266.095 148.68Z" fill="#0086FF"/>
<path d="M273.837 105.371C273.18 103.253 274.275 100.989 276.393 100.331C278.511 99.6742 280.775 100.77 281.433 102.888L286.618 118.809L293.337 125.528L285.595 101.573C284.208 97.191 279.461 94.7809 275.152 96.2416C272.449 97.118 270.477 99.309 269.747 101.865L274.275 106.393L273.837 105.371Z" fill="#0086FF"/>
<path d="M287.933 151.601C287.86 151.674 287.86 151.747 287.786 151.747C287.86 151.747 287.933 151.674 287.933 151.601Z" fill="#0086FF"/>
<path d="M286.91 152.405H286.983C286.91 152.405 286.837 152.478 286.837 152.478C286.837 152.405 286.837 152.405 286.91 152.405Z" fill="#0086FF"/>
<path d="M295.017 138.382H294.067C294.36 138.455 294.725 138.455 295.017 138.382Z" fill="#0086FF"/>
<path d="M283.258 148.169H286.253C287.275 148.169 288.079 148.826 288.298 149.775C288.298 149.702 288.298 149.702 288.298 149.629L284.573 138.309H280.045L283.258 148.169Z" fill="#0086FF"/>
<path d="M287.348 152.185C287.275 152.185 287.202 152.258 287.202 152.258C287.202 152.258 287.275 152.258 287.348 152.185Z" fill="#0086FF"/>
<path d="M287.713 151.966C287.64 152.039 287.64 152.039 287.567 152.112C287.567 152.039 287.64 151.966 287.713 151.966Z" fill="#0086FF"/>
<path d="M288.298 150.871C288.298 150.944 288.225 151.017 288.225 151.09C288.298 151.017 288.298 150.944 288.298 150.871Z" fill="#0086FF"/>
<path d="M269.747 106.685L270.185 108.146H273.18C274.348 108.146 275.371 109.096 275.371 110.337C275.371 111.506 274.421 112.528 273.18 112.528H271.646L280.045 138.455H284.573L274.129 106.466L269.601 101.938C269.163 103.399 269.163 105.079 269.747 106.685Z" fill="#0086FF"/>
<path d="M292.461 136.921C292.68 137.652 293.337 138.163 293.994 138.382H294.944C295.017 138.382 295.09 138.382 295.163 138.309C296.331 137.944 296.916 136.702 296.551 135.607L293.264 125.528L286.545 118.809L292.461 136.921Z" fill="#0086FF"/>
<path d="M273.18 112.455C274.348 112.455 275.371 111.506 275.371 110.264C275.371 109.096 274.421 108.073 273.18 108.073H270.185L271.573 112.382H273.18V112.455Z" fill="#0086FF"/>
<path d="M286.18 148.169H283.185L284.135 151.017C284.427 151.966 285.376 152.551 286.326 152.478C286.399 152.478 286.472 152.478 286.545 152.478C286.618 152.478 286.691 152.478 286.764 152.405C286.837 152.405 286.91 152.405 286.91 152.332C286.983 152.332 287.056 152.258 287.129 152.258C287.202 152.258 287.275 152.185 287.275 152.185C287.348 152.112 287.421 152.112 287.421 152.039C287.494 151.966 287.567 151.966 287.567 151.893C287.64 151.82 287.64 151.82 287.713 151.747C287.786 151.674 287.786 151.674 287.86 151.601C287.933 151.528 287.933 151.455 287.933 151.455C287.933 151.382 288.006 151.309 288.006 151.236C288.006 151.163 288.079 151.09 288.079 151.017C288.079 150.944 288.152 150.871 288.152 150.798C288.152 150.725 288.152 150.652 288.152 150.579C288.152 150.506 288.152 150.433 288.152 150.36C288.152 150.287 288.152 150.214 288.152 150.14C288.152 150.067 288.152 149.994 288.152 149.921C288.152 149.848 288.152 149.775 288.079 149.702C288.079 148.899 287.202 148.169 286.18 148.169Z" fill="#0086FF"/>
<path d="M332.702 222.079C333.433 223.028 334.747 223.247 335.697 222.59L341.028 218.719L337.961 215.652L333.213 219.084C332.264 219.742 332.045 221.129 332.702 222.079Z" fill="#93EAFF"/>
<path d="M354.174 209.225C357.899 206.523 358.702 201.337 356 197.612C355.27 196.663 353.955 196.444 353.006 197.101C352.056 197.832 351.837 199.146 352.494 200.096C353.809 201.848 353.371 204.405 351.618 205.646L337.961 215.579L341.028 218.646L354.174 209.225Z" fill="#93EAFF"/>
<path d="M345.264 228.213C345.994 229.163 347.309 229.382 348.258 228.725L349.865 227.556L347.309 225L346.798 224.489L345.775 225.219C344.753 225.876 344.534 227.264 345.264 228.213Z" fill="#93EAFF"/>
<path d="M349.865 227.556L356.73 222.59C360.455 219.888 361.258 214.702 358.556 210.978C357.826 210.028 356.511 209.809 355.562 210.466C354.612 211.124 354.393 212.511 355.051 213.461C356.365 215.214 355.927 217.77 354.174 219.011L346.725 224.416L347.236 224.927L349.865 227.556Z" fill="#93EAFF"/>
<path d="M321.09 254.871C322.112 254.725 323.135 255.309 323.427 256.332L324.157 258.45L330.584 256.551C330.803 256.478 331.022 256.405 331.242 256.259L354.905 239.096L353.955 236.247C353.59 235.079 354.174 233.91 355.343 233.545C355.489 233.472 355.635 233.472 355.781 233.472L355.562 233.253L328.978 252.534L321.09 254.871Z" fill="#93EAFF"/>
<path d="M320.506 255.09L303.051 260.202C302.831 260.275 302.612 260.348 302.393 260.494L288.298 270.719L291.949 273.421L304.584 264.219L319.921 259.691L319.264 257.646C318.972 256.624 319.483 255.528 320.506 255.09Z" fill="#93EAFF"/>
<path d="M358.556 236.393L358.629 236.32L358.41 236.101L358.556 236.393Z" fill="#93EAFF"/>
<path d="M358.045 234.933L358.41 236.101L358.629 236.32C361.916 233.545 362.5 228.652 359.944 225.146C359.213 224.197 357.899 223.978 356.949 224.635C356 225.365 355.781 226.68 356.438 227.629C357.753 229.382 357.315 231.938 355.562 233.18L355.781 233.399C356.803 233.326 357.753 233.91 358.045 234.933Z" fill="#93EAFF"/>
<path d="M287.056 271.669C286.107 272.399 285.888 273.714 286.545 274.663C287.275 275.612 288.59 275.832 289.539 275.174L291.949 273.421L288.298 270.719L287.056 271.669Z" fill="#93EAFF"/>
<path d="M355.781 233.472C355.635 233.472 355.489 233.545 355.343 233.545C354.174 233.91 353.59 235.152 353.955 236.247L354.905 239.096L358.191 236.758C358.337 236.685 358.483 236.539 358.629 236.393L358.556 236.101L355.781 233.472Z" fill="#93EAFF"/>
<path d="M358.045 234.933C357.753 233.91 356.73 233.326 355.781 233.472L358.483 236.174L358.045 234.933Z" fill="#93EAFF"/>
<path d="M321.09 254.871L320.506 255.017C319.483 255.455 318.972 256.624 319.337 257.646L319.994 259.691L324.157 258.449L323.427 256.331C323.062 255.382 322.112 254.725 321.09 254.871Z" fill="#93EAFF"/>
<path d="M229.944 313.152C228.994 313.882 228.775 315.197 229.433 316.146C230.163 317.095 231.478 317.315 232.427 316.657L245.354 307.236L242.286 304.168L229.944 313.152Z" fill="#93EAFF"/>
<path d="M242.798 303.876L242.36 304.169L245.427 307.236L246.449 306.506C246.303 306.433 246.157 306.287 246.011 306.214L242.798 303.876Z" fill="#93EAFF"/>
<path d="M248.202 302.635C247.472 301.685 246.157 301.466 245.208 302.124L242.798 303.876L246.084 306.214C246.23 306.287 246.376 306.433 246.522 306.506L247.764 305.629C248.713 304.899 248.86 303.584 248.202 302.635Z" fill="#93EAFF"/>
<path d="M196.129 288.831C195.18 289.562 194.961 290.876 195.618 291.826C196.348 292.775 197.663 292.994 198.612 292.337L214.753 280.652L212.343 277.073L196.129 288.831Z" fill="#93EAFF"/>
<path d="M217.09 276.27C217.017 276.197 217.017 276.197 216.944 276.124L217.309 276.635C217.236 276.489 217.163 276.416 217.09 276.27Z" fill="#93EAFF"/>
<path d="M217.017 278.899L214.022 275.905L212.343 277.073L214.753 280.652L216.579 279.337C216.798 279.191 216.944 279.045 217.017 278.899Z" fill="#93EAFF"/>
<path d="M214.095 275.831L217.09 278.899C217.601 278.242 217.674 277.365 217.309 276.635L216.944 276.124C216.213 275.32 214.972 275.174 214.095 275.831Z" fill="#93EAFF"/>
<path d="M252.511 247.348C252.584 247.275 252.584 247.202 252.657 247.202C252.657 247.202 252.584 247.275 252.511 247.348Z" fill="#93EAFF"/>
<path d="M252.292 247.713C252.292 247.64 252.365 247.567 252.438 247.494C252.365 247.567 252.365 247.64 252.292 247.713Z" fill="#93EAFF"/>
<path d="M255.506 246.91L257.916 248.663L289.685 225.584C290.197 225.219 290.562 224.562 290.562 223.905L290.854 210.466L299.472 198.051L297.792 192.865L286.983 208.494C286.764 208.86 286.618 209.225 286.618 209.663L286.326 222.663L269.09 235.152L270.112 235.444C270.331 235.517 270.551 235.59 270.77 235.736C271.5 236.247 271.865 237.197 271.573 238.073C271.208 239.242 270.039 239.899 268.871 239.534L264.708 238.292L253.022 246.764L252.949 246.837C253.607 246.399 254.702 246.326 255.506 246.91Z" fill="#93EAFF"/>
<path d="M252.438 249.978L252.511 250.051C252.511 249.978 252.438 249.978 252.438 249.978C252.438 249.905 252.438 249.905 252.438 249.978Z" fill="#93EAFF"/>
<path d="M252.876 250.343C252.803 250.27 252.73 250.27 252.73 250.197C252.73 250.27 252.803 250.343 252.876 250.343Z" fill="#93EAFF"/>
<path d="M252.146 249.32C252.146 249.247 252.073 249.174 252.073 249.101C252.146 249.174 252.146 249.247 252.146 249.32Z" fill="#93EAFF"/>
<path d="M271.5 238.292C271.792 237.416 271.427 236.466 270.697 235.955C270.478 235.809 270.258 235.736 270.039 235.663L269.017 235.371L264.635 238.584L268.798 239.826C269.893 240.045 271.135 239.388 271.5 238.292Z" fill="#93EAFF"/>
<path d="M255.506 250.416L257.916 248.663L255.506 246.91C254.702 246.326 253.607 246.399 252.876 246.983C252.803 247.056 252.803 247.056 252.73 247.129C252.657 247.202 252.657 247.275 252.584 247.275C252.511 247.348 252.511 247.348 252.438 247.421C252.365 247.494 252.365 247.568 252.292 247.641C252.292 247.714 252.219 247.787 252.219 247.787C252.219 247.86 252.146 247.933 252.146 248.006C252.146 248.079 252.073 248.152 252.073 248.225C252.073 248.298 252.073 248.371 252.073 248.444C252.073 248.517 252.073 248.59 252.073 248.663C252.073 248.736 252.073 248.809 252.073 248.882C252.073 248.955 252.073 249.028 252.073 249.101C252.073 249.174 252.073 249.247 252.146 249.32C252.146 249.393 252.219 249.466 252.219 249.539C252.219 249.612 252.292 249.685 252.292 249.685C252.365 249.759 252.365 249.832 252.438 249.905C252.438 249.978 252.511 249.978 252.584 250.051C252.657 250.124 252.657 250.197 252.73 250.197C252.803 250.27 252.803 250.27 252.876 250.343C253.607 251 254.702 251 255.506 250.416Z" fill="#93EAFF"/>
<path d="M301.882 194.545C302.539 193.596 302.32 192.208 301.371 191.551C300.567 191.039 299.618 191.039 298.888 191.551C298.669 191.697 298.522 191.843 298.376 192.062L297.792 192.938L299.472 198.124L301.882 194.545Z" fill="#93EAFF"/>
<path d="M304.511 212.803C304.438 212.73 304.438 212.73 304.365 212.657C304.438 212.73 304.511 212.73 304.511 212.803Z" fill="#93EAFF"/>
<path d="M306.702 213.169C306.775 213.169 306.848 213.096 306.921 213.096C306.848 213.096 306.775 213.096 306.702 213.169Z" fill="#93EAFF"/>
<path d="M305.461 213.242C305.534 213.242 305.607 213.242 305.68 213.315C305.607 213.315 305.534 213.242 305.461 213.242Z" fill="#93EAFF"/>
<path d="M304.219 212.511C304.146 212.438 304.146 212.438 304.073 212.365C304.146 212.365 304.146 212.365 304.219 212.511C304.219 212.438 304.219 212.438 304.219 212.511Z" fill="#93EAFF"/>
<path d="M305.095 213.096C305.169 213.096 305.242 213.169 305.315 213.169C305.169 213.169 305.169 213.169 305.095 213.096Z" fill="#93EAFF"/>
<path d="M354.028 183.809C352.786 182.129 351.034 181.034 349.135 180.596L355.416 186.876C355.124 185.781 354.685 184.758 354.028 183.809Z" fill="#93EAFF"/>
<path d="M304.73 212.949C304.803 213.022 304.876 213.022 304.876 213.096C304.803 213.022 304.803 212.949 304.73 212.949Z" fill="#93EAFF"/>
<path d="M307.067 212.949C307.067 212.949 307.14 212.949 307.14 212.876L323.354 201.045L320.286 197.978L306.994 207.618L307.944 210.466C308.309 211.416 307.871 212.438 307.067 212.949Z" fill="#93EAFF"/>
<path d="M320.652 212.95C319.702 213.68 319.483 214.994 320.14 215.944C320.871 216.893 322.185 217.112 323.135 216.455L332.191 209.882L329.124 206.815L320.652 212.95Z" fill="#93EAFF"/>
<path d="M344.899 185.489C346.652 184.174 349.208 184.612 350.449 186.365C351.764 188.118 351.326 190.674 349.573 191.916L329.124 206.815L332.191 209.882L352.129 195.421C354.904 193.376 356.073 190.017 355.343 186.876L349.062 180.596C346.798 180.084 344.315 180.523 342.343 181.983L341.101 182.86L342.051 185.708C342.416 186.876 341.831 188.045 340.663 188.41C339.494 188.775 338.326 188.191 337.961 187.023L337.449 185.562L320.286 198.051L323.354 201.118L344.899 185.489Z" fill="#93EAFF"/>
<path d="M337.961 187.023C338.326 188.191 339.567 188.775 340.663 188.41C341.831 188.045 342.416 186.803 342.051 185.708L341.101 182.86L337.449 185.562L337.961 187.023Z" fill="#93EAFF"/>
<path d="M303.927 211.927C303.927 212 304 212.073 304 212.146C304 212.219 304.073 212.292 304.146 212.365C304.146 212.438 304.219 212.438 304.292 212.511C304.365 212.584 304.365 212.657 304.438 212.657C304.511 212.73 304.511 212.73 304.584 212.803C304.657 212.877 304.73 212.877 304.73 212.95C304.803 213.023 304.876 213.023 304.876 213.096C304.949 213.096 305.022 213.169 305.022 213.169C305.096 213.169 305.169 213.242 305.242 213.242C305.315 213.242 305.388 213.242 305.461 213.315C305.534 213.315 305.607 213.315 305.68 213.388C305.753 213.388 305.826 213.388 305.899 213.388C305.972 213.388 306.045 213.388 306.118 213.388C306.191 213.388 306.264 213.388 306.337 213.388C306.41 213.388 306.483 213.388 306.556 213.315C306.629 213.315 306.702 213.242 306.702 213.242C306.775 213.242 306.848 213.169 306.921 213.169C306.994 213.169 307.067 213.096 307.14 213.096C307.944 212.584 308.309 211.562 308.017 210.612L307.067 207.764L304.657 209.517C303.854 209.955 303.562 211.051 303.927 211.927Z" fill="#93EAFF"/>
</g>
<path d="M168.489 344.766H164.134C164.055 344.202 163.892 343.702 163.647 343.264C163.402 342.82 163.087 342.442 162.702 342.131C162.318 341.819 161.874 341.58 161.37 341.415C160.873 341.249 160.332 341.166 159.749 341.166C158.695 341.166 157.777 341.428 156.995 341.952C156.213 342.469 155.606 343.224 155.175 344.219C154.744 345.206 154.529 346.406 154.529 347.818C154.529 349.27 154.744 350.49 155.175 351.477C155.613 352.465 156.223 353.211 157.005 353.714C157.787 354.218 158.692 354.47 159.719 354.47C160.296 354.47 160.83 354.394 161.32 354.241C161.817 354.089 162.258 353.867 162.643 353.575C163.027 353.277 163.345 352.916 163.597 352.491C163.856 352.067 164.035 351.583 164.134 351.04L168.489 351.06C168.376 351.994 168.095 352.896 167.644 353.764C167.2 354.626 166.6 355.398 165.844 356.081C165.095 356.757 164.2 357.294 163.16 357.692C162.126 358.083 160.956 358.278 159.65 358.278C157.833 358.278 156.209 357.867 154.778 357.045C153.352 356.223 152.225 355.034 151.397 353.476C150.575 351.918 150.164 350.032 150.164 347.818C150.164 345.598 150.581 343.708 151.417 342.151C152.252 340.593 153.385 339.406 154.817 338.591C156.249 337.769 157.86 337.358 159.65 337.358C160.83 337.358 161.923 337.524 162.931 337.855C163.945 338.187 164.843 338.67 165.626 339.307C166.408 339.937 167.044 340.709 167.535 341.624C168.032 342.538 168.35 343.586 168.489 344.766ZM171.577 358V337.636H175.882V354.45H184.612V358H171.577ZM205.383 347.818C205.383 350.039 204.962 351.928 204.121 353.486C203.285 355.044 202.145 356.233 200.7 357.055C199.262 357.871 197.644 358.278 195.848 358.278C194.038 358.278 192.414 357.867 190.976 357.045C189.537 356.223 188.4 355.034 187.565 353.476C186.73 351.918 186.312 350.032 186.312 347.818C186.312 345.598 186.73 343.708 187.565 342.151C188.4 340.593 189.537 339.406 190.976 338.591C192.414 337.769 194.038 337.358 195.848 337.358C197.644 337.358 199.262 337.769 200.7 338.591C202.145 339.406 203.285 340.593 204.121 342.151C204.962 343.708 205.383 345.598 205.383 347.818ZM201.018 347.818C201.018 346.38 200.803 345.167 200.372 344.179C199.948 343.191 199.348 342.442 198.572 341.932C197.797 341.421 196.889 341.166 195.848 341.166C194.807 341.166 193.899 341.421 193.123 341.932C192.348 342.442 191.745 343.191 191.314 344.179C190.89 345.167 190.677 346.38 190.677 347.818C190.677 349.257 190.89 350.47 191.314 351.457C191.745 352.445 192.348 353.194 193.123 353.705C193.899 354.215 194.807 354.47 195.848 354.47C196.889 354.47 197.797 354.215 198.572 353.705C199.348 353.194 199.948 352.445 200.372 351.457C200.803 350.47 201.018 349.257 201.018 347.818ZM221.151 337.636H225.456V350.861C225.456 352.346 225.102 353.645 224.392 354.759C223.69 355.872 222.705 356.741 221.439 357.364C220.173 357.98 218.698 358.288 217.014 358.288C215.324 358.288 213.846 357.98 212.58 357.364C211.314 356.741 210.329 355.872 209.627 354.759C208.924 353.645 208.573 352.346 208.573 350.861V337.636H212.878V350.493C212.878 351.268 213.047 351.958 213.385 352.561C213.73 353.164 214.214 353.638 214.837 353.983C215.46 354.328 216.186 354.5 217.014 354.5C217.85 354.5 218.575 354.328 219.192 353.983C219.815 353.638 220.296 353.164 220.634 352.561C220.978 351.958 221.151 351.268 221.151 350.493V337.636ZM236.217 358H228.998V337.636H236.277C238.325 337.636 240.088 338.044 241.567 338.859C243.045 339.668 244.182 340.831 244.977 342.349C245.779 343.867 246.18 345.684 246.18 347.798C246.18 349.92 245.779 351.742 244.977 353.267C244.182 354.792 243.038 355.962 241.547 356.777C240.062 357.592 238.285 358 236.217 358ZM233.304 354.311H236.038C237.311 354.311 238.381 354.086 239.25 353.635C240.125 353.178 240.781 352.472 241.219 351.517C241.663 350.556 241.885 349.316 241.885 347.798C241.885 346.294 241.663 345.064 241.219 344.109C240.781 343.155 240.128 342.452 239.26 342.001C238.391 341.551 237.321 341.325 236.048 341.325H233.304V354.311ZM272.883 337.636V358H269.164L260.305 345.183H260.155V358H255.85V337.636H259.628L268.418 350.443H268.597V337.636H272.883ZM279.95 358H275.336L282.366 337.636H287.914L294.934 358H290.32L285.22 342.29H285.061L279.95 358ZM279.661 349.996H290.559V353.357H279.661V349.996ZM294.121 341.186V337.636H310.846V341.186H304.611V358H300.356V341.186H294.121ZM317.905 337.636V358H313.6V337.636H317.905ZM325.127 337.636L330.048 353.108H330.237L335.169 337.636H339.942L332.922 358H327.374L320.344 337.636H325.127ZM342.393 358V337.636H356.115V341.186H346.698V346.038H355.409V349.588H346.698V354.45H356.154V358H342.393ZM122.729 378.766H118.374C118.295 378.202 118.132 377.702 117.887 377.264C117.642 376.82 117.327 376.442 116.942 376.131C116.558 375.819 116.114 375.58 115.61 375.415C115.113 375.249 114.573 375.166 113.989 375.166C112.935 375.166 112.017 375.428 111.235 375.952C110.453 376.469 109.846 377.224 109.415 378.219C108.985 379.206 108.769 380.406 108.769 381.818C108.769 383.27 108.985 384.49 109.415 385.477C109.853 386.465 110.463 387.211 111.245 387.714C112.027 388.218 112.932 388.47 113.96 388.47C114.536 388.47 115.07 388.394 115.56 388.241C116.058 388.089 116.498 387.867 116.883 387.575C117.267 387.277 117.585 386.916 117.837 386.491C118.096 386.067 118.275 385.583 118.374 385.04L122.729 385.06C122.617 385.994 122.335 386.896 121.884 387.764C121.44 388.626 120.84 389.398 120.085 390.081C119.335 390.757 118.441 391.294 117.4 391.692C116.366 392.083 115.196 392.278 113.89 392.278C112.074 392.278 110.45 391.867 109.018 391.045C107.593 390.223 106.466 389.034 105.637 387.476C104.815 385.918 104.404 384.032 104.404 381.818C104.404 379.598 104.822 377.708 105.657 376.151C106.492 374.593 107.626 373.406 109.058 372.591C110.489 371.769 112.1 371.358 113.89 371.358C115.07 371.358 116.164 371.524 117.171 371.855C118.185 372.187 119.084 372.67 119.866 373.307C120.648 373.937 121.284 374.709 121.775 375.624C122.272 376.538 122.59 377.586 122.729 378.766ZM144.53 381.818C144.53 384.039 144.109 385.928 143.267 387.486C142.432 389.044 141.292 390.233 139.847 391.055C138.408 391.871 136.791 392.278 134.994 392.278C133.185 392.278 131.561 391.867 130.122 391.045C128.684 390.223 127.547 389.034 126.712 387.476C125.876 385.918 125.459 384.032 125.459 381.818C125.459 379.598 125.876 377.708 126.712 376.151C127.547 374.593 128.684 373.406 130.122 372.591C131.561 371.769 133.185 371.358 134.994 371.358C136.791 371.358 138.408 371.769 139.847 372.591C141.292 373.406 142.432 374.593 143.267 376.151C144.109 377.708 144.53 379.598 144.53 381.818ZM140.165 381.818C140.165 380.38 139.949 379.167 139.518 378.179C139.094 377.191 138.494 376.442 137.719 375.932C136.943 375.421 136.035 375.166 134.994 375.166C133.954 375.166 133.045 375.421 132.27 375.932C131.494 376.442 130.891 377.191 130.46 378.179C130.036 379.167 129.824 380.38 129.824 381.818C129.824 383.257 130.036 384.47 130.46 385.457C130.891 386.445 131.494 387.194 132.27 387.705C133.045 388.215 133.954 388.47 134.994 388.47C136.035 388.47 136.943 388.215 137.719 387.705C138.494 387.194 139.094 386.445 139.518 385.457C139.949 384.47 140.165 383.257 140.165 381.818ZM147.719 371.636H153.029L158.637 385.318H158.875L164.483 371.636H169.793V392H165.617V378.746H165.448L160.178 391.901H157.334L152.064 378.696H151.895V392H147.719V371.636ZM173.34 371.636H178.65L184.258 385.318H184.496L190.104 371.636H195.414V392H191.238V378.746H191.069L185.799 391.901H182.955L177.685 378.696H177.516V392H173.34V371.636ZM211.539 371.636H215.845V384.861C215.845 386.346 215.49 387.645 214.781 388.759C214.078 389.872 213.094 390.741 211.828 391.364C210.562 391.98 209.087 392.288 207.403 392.288C205.713 392.288 204.234 391.98 202.968 391.364C201.702 390.741 200.718 389.872 200.015 388.759C199.313 387.645 198.961 386.346 198.961 384.861V371.636H203.267V384.493C203.267 385.268 203.436 385.958 203.774 386.561C204.118 387.164 204.602 387.638 205.225 387.983C205.849 388.328 206.574 388.5 207.403 388.5C208.238 388.5 208.964 388.328 209.581 387.983C210.204 387.638 210.684 387.164 211.022 386.561C211.367 385.958 211.539 385.268 211.539 384.493V371.636ZM236.42 371.636V392H232.701L223.842 379.183H223.692V392H219.387V371.636H223.165L231.955 384.443H232.134V371.636H236.42ZM244.282 371.636V392H239.977V371.636H244.282ZM247.049 375.186V371.636H263.773V375.186H257.539V392H253.283V375.186H247.049ZM265.335 371.636H270.157L274.8 380.406H274.999L279.643 371.636H284.465L277.038 384.801V392H272.762V384.801L265.335 371.636ZM306.8 378.219C306.661 377.735 306.465 377.307 306.213 376.936C305.962 376.558 305.653 376.24 305.289 375.982C304.931 375.716 304.52 375.514 304.056 375.375C303.598 375.236 303.091 375.166 302.534 375.166C301.494 375.166 300.579 375.425 299.79 375.942C299.008 376.459 298.398 377.211 297.961 378.199C297.523 379.18 297.304 380.38 297.304 381.798C297.304 383.217 297.52 384.423 297.951 385.418C298.382 386.412 298.991 387.171 299.78 387.695C300.569 388.212 301.5 388.47 302.574 388.47C303.549 388.47 304.381 388.298 305.07 387.953C305.766 387.602 306.296 387.108 306.661 386.472C307.032 385.835 307.218 385.083 307.218 384.214L308.093 384.344H302.843V381.102H311.364V383.668C311.364 385.457 310.986 386.995 310.23 388.281C309.475 389.561 308.434 390.548 307.108 391.244C305.783 391.934 304.265 392.278 302.554 392.278C300.645 392.278 298.968 391.857 297.523 391.016C296.078 390.167 294.951 388.964 294.142 387.406C293.34 385.842 292.939 383.986 292.939 381.838C292.939 380.187 293.178 378.716 293.655 377.423C294.139 376.124 294.815 375.024 295.684 374.122C296.552 373.221 297.563 372.535 298.716 372.064C299.87 371.593 301.119 371.358 302.465 371.358C303.618 371.358 304.692 371.527 305.686 371.865C306.681 372.196 307.562 372.667 308.331 373.277C309.107 373.887 309.74 374.613 310.23 375.455C310.721 376.29 311.036 377.211 311.175 378.219H306.8ZM314.598 392V371.636H322.632C324.17 371.636 325.482 371.911 326.57 372.462C327.663 373.005 328.495 373.777 329.065 374.778C329.642 375.773 329.93 376.943 329.93 378.288C329.93 379.641 329.639 380.804 329.055 381.778C328.472 382.746 327.627 383.489 326.52 384.006C325.42 384.523 324.087 384.781 322.523 384.781H317.143V381.321H321.827C322.649 381.321 323.331 381.208 323.875 380.983C324.419 380.758 324.823 380.42 325.088 379.969C325.36 379.518 325.496 378.958 325.496 378.288C325.496 377.612 325.36 377.042 325.088 376.578C324.823 376.114 324.415 375.763 323.865 375.524C323.321 375.279 322.635 375.156 321.807 375.156H318.903V392H314.598ZM325.595 382.733L330.656 392H325.903L320.952 382.733H325.595ZM351.686 381.818C351.686 384.039 351.265 385.928 350.423 387.486C349.588 389.044 348.448 390.233 347.003 391.055C345.564 391.871 343.947 392.278 342.151 392.278C340.341 392.278 338.717 391.867 337.278 391.045C335.84 390.223 334.703 389.034 333.868 387.476C333.033 385.918 332.615 384.032 332.615 381.818C332.615 379.598 333.033 377.708 333.868 376.151C334.703 374.593 335.84 373.406 337.278 372.591C338.717 371.769 340.341 371.358 342.151 371.358C343.947 371.358 345.564 371.769 347.003 372.591C348.448 373.406 349.588 374.593 350.423 376.151C351.265 377.708 351.686 379.598 351.686 381.818ZM347.321 381.818C347.321 380.38 347.106 379.167 346.675 378.179C346.25 377.191 345.651 376.442 344.875 375.932C344.099 375.421 343.191 375.166 342.151 375.166C341.11 375.166 340.202 375.421 339.426 375.932C338.651 376.442 338.047 377.191 337.616 378.179C337.192 379.167 336.98 380.38 336.98 381.818C336.98 383.257 337.192 384.47 337.616 385.457C338.047 386.445 338.651 387.194 339.426 387.705C340.202 388.215 341.11 388.47 342.151 388.47C343.191 388.47 344.099 388.215 344.875 387.705C345.651 387.194 346.25 386.445 346.675 385.457C347.106 384.47 347.321 383.257 347.321 381.818ZM367.453 371.636H371.759V384.861C371.759 386.346 371.404 387.645 370.695 388.759C369.992 389.872 369.008 390.741 367.742 391.364C366.476 391.98 365.001 392.288 363.317 392.288C361.627 392.288 360.149 391.98 358.882 391.364C357.616 390.741 356.632 389.872 355.929 388.759C355.227 387.645 354.875 386.346 354.875 384.861V371.636H359.181V384.493C359.181 385.268 359.35 385.958 359.688 386.561C360.033 387.164 360.516 387.638 361.14 387.983C361.763 388.328 362.489 388.5 363.317 388.5C364.152 388.5 364.878 388.328 365.495 387.983C366.118 387.638 366.598 387.164 366.936 386.561C367.281 385.958 367.453 385.268 367.453 384.493V371.636ZM375.301 392V371.636H383.335C384.88 371.636 386.196 371.931 387.283 372.521C388.37 373.105 389.198 373.917 389.768 374.957C390.345 375.991 390.634 377.185 390.634 378.537C390.634 379.889 390.342 381.082 389.759 382.116C389.175 383.151 388.33 383.956 387.223 384.533C386.123 385.109 384.79 385.398 383.226 385.398H378.105V381.947H382.53C383.358 381.947 384.041 381.805 384.578 381.52C385.122 381.228 385.526 380.827 385.791 380.317C386.063 379.8 386.199 379.206 386.199 378.537C386.199 377.861 386.063 377.271 385.791 376.767C385.526 376.257 385.122 375.862 384.578 375.584C384.035 375.299 383.345 375.156 382.51 375.156H379.607V392H375.301ZM404.477 377.493C404.397 376.691 404.056 376.068 403.453 375.624C402.85 375.179 402.031 374.957 400.997 374.957C400.294 374.957 399.701 375.057 399.217 375.256C398.733 375.448 398.362 375.716 398.103 376.061C397.851 376.406 397.725 376.797 397.725 377.234C397.712 377.599 397.788 377.917 397.954 378.189C398.127 378.461 398.362 378.696 398.66 378.895C398.958 379.087 399.303 379.256 399.694 379.402C400.085 379.541 400.503 379.661 400.947 379.76L402.777 380.197C403.665 380.396 404.48 380.661 405.223 380.993C405.965 381.324 406.608 381.732 407.152 382.216C407.695 382.7 408.116 383.27 408.414 383.926C408.719 384.582 408.875 385.335 408.882 386.183C408.875 387.429 408.557 388.51 407.927 389.425C407.304 390.333 406.403 391.039 405.223 391.543C404.049 392.04 402.634 392.288 400.977 392.288C399.333 392.288 397.901 392.036 396.681 391.533C395.468 391.029 394.52 390.283 393.838 389.295C393.162 388.301 392.807 387.071 392.774 385.607H396.94C396.986 386.289 397.182 386.859 397.527 387.317C397.878 387.768 398.345 388.109 398.929 388.341C399.519 388.566 400.185 388.679 400.927 388.679C401.656 388.679 402.289 388.573 402.826 388.361C403.37 388.149 403.791 387.854 404.089 387.476C404.387 387.098 404.537 386.664 404.537 386.173C404.537 385.716 404.401 385.331 404.129 385.02C403.864 384.708 403.473 384.443 402.956 384.224C402.445 384.006 401.819 383.807 401.076 383.628L398.859 383.071C397.142 382.653 395.787 382 394.792 381.112C393.798 380.224 393.304 379.027 393.311 377.523C393.304 376.29 393.632 375.213 394.295 374.291C394.965 373.37 395.883 372.651 397.049 372.134C398.216 371.616 399.542 371.358 401.027 371.358C402.538 371.358 403.857 371.616 404.984 372.134C406.118 372.651 406.999 373.37 407.629 374.291C408.259 375.213 408.583 376.28 408.603 377.493H404.477Z" fill="#838383"/>
<path d="M216.248 407.818V426H212.928L205.018 414.556H204.885V426H201.041V407.818H204.414L212.262 419.253H212.422V407.818H216.248ZM222.558 426H218.439L224.716 407.818H229.67L235.937 426H231.818L227.264 411.973H227.122L222.558 426ZM222.301 418.853H232.031V421.854H222.301V418.853ZM249.327 413.695C249.203 413.263 249.028 412.882 248.803 412.55C248.579 412.213 248.303 411.929 247.978 411.698C247.658 411.461 247.291 411.281 246.877 411.156C246.469 411.032 246.016 410.97 245.519 410.97C244.589 410.97 243.773 411.201 243.068 411.662C242.37 412.124 241.826 412.796 241.435 413.678C241.044 414.554 240.849 415.625 240.849 416.891C240.849 418.158 241.041 419.235 241.426 420.123C241.811 421.011 242.355 421.688 243.06 422.156C243.764 422.618 244.595 422.848 245.554 422.848C246.424 422.848 247.167 422.694 247.783 422.387C248.404 422.073 248.877 421.632 249.203 421.064C249.534 420.496 249.7 419.824 249.7 419.049L250.481 419.164H245.794V416.27H253.402V418.56C253.402 420.158 253.065 421.531 252.39 422.68C251.715 423.822 250.786 424.704 249.602 425.325C248.419 425.941 247.063 426.249 245.536 426.249C243.832 426.249 242.335 425.873 241.044 425.121C239.754 424.364 238.748 423.289 238.026 421.898C237.31 420.502 236.952 418.844 236.952 416.927C236.952 415.453 237.165 414.139 237.591 412.985C238.023 411.825 238.627 410.843 239.402 410.038C240.177 409.233 241.08 408.62 242.11 408.2C243.139 407.78 244.255 407.57 245.457 407.57C246.486 407.57 247.445 407.721 248.333 408.022C249.221 408.318 250.008 408.739 250.694 409.283C251.387 409.828 251.952 410.476 252.39 411.227C252.828 411.973 253.109 412.796 253.234 413.695H249.327ZM256.29 426V407.818H263.463C264.842 407.818 266.017 408.082 266.988 408.608C267.958 409.129 268.698 409.854 269.207 410.783C269.722 411.707 269.979 412.772 269.979 413.979C269.979 415.187 269.719 416.252 269.198 417.175C268.677 418.099 267.923 418.818 266.934 419.333C265.952 419.848 264.762 420.105 263.365 420.105H258.793V417.025H262.744C263.484 417.025 264.093 416.897 264.573 416.643C265.058 416.382 265.419 416.024 265.656 415.569C265.899 415.107 266.02 414.577 266.02 413.979C266.02 413.376 265.899 412.849 265.656 412.399C265.419 411.943 265.058 411.591 264.573 411.343C264.087 411.088 263.472 410.961 262.726 410.961H260.134V426H256.29ZM283.707 407.818H287.551V419.626C287.551 420.951 287.234 422.112 286.601 423.106C285.974 424.1 285.095 424.875 283.964 425.432C282.834 425.982 281.517 426.257 280.014 426.257C278.504 426.257 277.184 425.982 276.054 425.432C274.924 424.875 274.045 424.1 273.417 423.106C272.79 422.112 272.476 420.951 272.476 419.626V407.818H276.32V419.297C276.32 419.99 276.471 420.605 276.773 421.144C277.081 421.682 277.513 422.106 278.069 422.413C278.626 422.721 279.274 422.875 280.014 422.875C280.759 422.875 281.407 422.721 281.958 422.413C282.514 422.106 282.943 421.682 283.245 421.144C283.553 420.605 283.707 419.99 283.707 419.297V407.818ZM290.714 426V407.818H297.887C299.26 407.818 300.432 408.064 301.402 408.555C302.379 409.04 303.122 409.73 303.631 410.624C304.146 411.511 304.403 412.556 304.403 413.757C304.403 414.965 304.143 416.004 303.622 416.874C303.101 417.738 302.346 418.401 301.358 418.862C300.376 419.324 299.186 419.555 297.789 419.555H292.986V416.465H297.168C297.902 416.465 298.511 416.365 298.997 416.163C299.482 415.962 299.843 415.66 300.08 415.258C300.322 414.855 300.444 414.355 300.444 413.757C300.444 413.154 300.322 412.645 300.08 412.23C299.843 411.816 299.479 411.502 298.988 411.289C298.502 411.07 297.89 410.961 297.15 410.961H294.558V426H290.714ZM300.532 417.726L305.051 426H300.808L296.386 417.726H300.532Z" fill="#0086FF"/>
<rect x="166" width="167.2" height="50" fill="#93EAFF"/>
<rect width="167.2" height="50" fill="#0086FF"/>
<rect y="450" width="167.2" height="50" fill="#0086FF"/>
<rect x="450" y="167.2" width="167.2" height="50" transform="rotate(-90 450 167.2)" fill="#0086FF"/>
<rect y="167.2" width="167.2" height="50" transform="rotate(-90 0 167.2)" fill="#0086FF"/>
<rect x="333" width="167.2" height="50" fill="#0086FF"/>
<rect x="333" y="450" width="167.2" height="50" fill="#0086FF"/>
<rect x="450" y="500.2" width="167.2" height="50" transform="rotate(-90 450 500.2)" fill="#0086FF"/>
<rect y="500.2" width="167.2" height="50" transform="rotate(-90 0 500.2)" fill="#0086FF"/>
<rect x="167" y="450" width="167.2" height="50" fill="#93EAFF"/>
<rect x="450" y="333" width="167.2" height="50" transform="rotate(-90 450 333)" fill="#93EAFF"/>
<rect y="333" width="167.2" height="50" transform="rotate(-90 0 333)" fill="#93EAFF"/>
</g>
<defs>
<clipPath id="clip0_31_10">
<rect width="500" height="500" fill="white"/>
</clipPath>
<clipPath id="clip1_31_10">
<rect width="260" height="260" fill="white" transform="translate(122 69)"/>
</clipPath>
</defs>
</svg>
